<svg xmlns="http://www.w3.org/2000/svg" viewBox="0 0 1784.03 1269.64"><style>.B{mix-blend-mode:screen}</style><g class="B" opacity=".24"><path d="M1390.9 500.73h-84.14l-42.07 72.87 42.07 72.86h84.14l42.07-72.86-42.07-72.87z" fill="#a7a9ac" opacity=".2"/><g fill="#bcbec0"><path d="M1525.23 626.6h-84.13l-42.07 72.87 42.07 72.86h84.13l42.07-72.86-42.07-72.87z"/><path d="M392.15 1027.8h-84.13l-42.07 72.86 42.07 72.87h84.13l42.07-72.87-42.07-72.86zm181.97-67.35h-101l-50.5 87.48 50.5 87.48h101l50.5-87.48-50.5-87.48z" opacity=".37"/><path d="M428 911.2h-63.44l-31.72 54.94 31.72 54.94H428l31.72-54.94L428 911.2z" opacity=".25"/></g><g fill="#d1d3d4"><path d="M519.13 723.24h-48.7l-24.36 42.2 24.36 42.2h48.7l24.37-42.2-24.37-42.2z" opacity=".34"/><path d="M1128.75 731.16h-48.72l-24.36 42.2 24.36 42.2h48.72l24.36-42.2-24.36-42.2z" opacity=".63"/></g><g fill="#bcbec0"><path d="M778.9 886.1H728.9l-25 43.3 25 43.28h49.98l25-43.28-25-43.3z" opacity=".14"/><path d="M1359.26 850.02h-84.14l-42.07 72.87 42.07 72.86h84.14l42.07-72.86-42.07-72.87z" opacity=".55"/><path d="M1503.17 785.68h-84.13l-42.07 72.87 42.07 72.86h84.13l42.07-72.86-42.07-72.87z" opacity=".76"/></g><path d="M1604.85 388.2H1474.9l-64.97 112.54 64.97 112.55h129.96l64.98-112.55-64.98-112.54z" fill="#a7a9ac" opacity=".25"/><path d="M381.08 673.14H251.13l-64.98 112.54 64.98 112.54h129.95l64.98-112.54-64.98-112.54z" fill="#bcbec0" opacity=".2"/><g fill="#d1d3d4"><path d="M619.13 364.97H417.1l-101 174.95 101 174.96h202.02l101-174.96-101-174.95z" opacity=".37"/><path d="M303.03 183.58H101L0 358.53 101 533.5h202.02l101-174.96-101-174.95z" opacity=".16"/><path d="M935.38 183.58H733.36l-101 174.95 101 174.96h202.02l101-174.96-101-174.95zM619.13 0H417.1l-101 174.95 101 174.96h202.02l101-174.96L619.13 0z" opacity=".1"/></g><g fill="#bcbec0"><path d="M768.9 1044.55H638.94l-64.98 112.54 64.98 112.54H768.9l64.98-112.54-64.98-112.54z" opacity=".46"/><path d="M1536.17 944.75h-129.95l-64.98 112.54 64.98 112.55h129.95l64.98-112.55-64.98-112.54zm182.88-259.3H1589.1L1524.12 798l64.98 112.55h129.95L1784.03 798l-64.98-112.54z" opacity=".34"/><path d="M1191.05 944.75h-66.82l-33.4 57.87 33.4 57.87h66.82l33.4-57.87-33.4-57.87z"/><path d="M987.77 966.14h-122.6l-61.3 106.17 61.3 106.17h122.6l61.3-106.17-61.3-106.17z" opacity=".65"/><path d="M1127.05 1077.8h-72.46l-36.24 62.76 36.24 62.76h72.46l36.24-62.76-36.24-62.76z" opacity=".4"/></g><path d="M1363.55 680.63h-92.72l-46.37 80.3 46.37 80.3h92.72l46.37-80.3-46.37-80.3z" fill="#a7a9ac" opacity=".34"/></g></svg>