<svg width="1920" height="1080" viewBox="0 0 1920 1080" fill="none" xmlns="http://www.w3.org/2000/svg">
<path opacity="0.2" d="M514.357 277.643L655.643 277.643L726.286 400L655.643 522.357L514.357 522.357L443.714 400L514.357 277.643Z" fill="#C4C4C4"/>
<path opacity="0.2" d="M514.357 277.643L655.643 277.643L726.286 400L655.643 522.357L514.357 522.357L443.714 400L514.357 277.643Z" fill="#C4C4C4"/>
<path opacity="0.2" d="M259.928 501.572L463.072 501.572L564.644 677.5L463.072 853.428L259.928 853.428L158.356 677.5L259.928 501.572Z" fill="#C4C4C4"/>
<path opacity="0.2" d="M1480.6 401.9L1728.4 401.9L1852.3 616.5L1728.4 831.1L1480.6 831.1L1356.7 616.5L1480.6 401.9Z" fill="#C4C4C4"/>
<path opacity="0.2" d="M1123.16 528.343L1283.84 528.343L1364.19 667.5L1283.84 806.657L1123.16 806.657L1042.81 667.5L1123.16 528.343Z" fill="#C4C4C4"/>
<path opacity="0.2" d="M74.851 812.649L190.149 812.649L247.798 912.5L190.149 1012.35L74.851 1012.35L17.202 912.5L74.851 812.649Z" fill="#C4C4C4"/>
<path opacity="0.2" d="M1402.85 164.649L1518.15 164.649L1575.8 264.5L1518.15 364.351L1402.85 364.351L1345.2 264.5L1402.85 164.649Z" fill="#C4C4C4"/>
<path opacity="0.2" d="M1704.85 7.649L1820.15 7.649L1877.8 107.5L1820.15 207.351L1704.85 207.351L1647.2 107.5L1704.85 7.649Z" fill="#C4C4C4"/>
<path opacity="0.2" d="M1698.15 926.348L1776.85 926.348L1816.2 994.5L1776.85 1062.65L1698.15 1062.65L1658.8 994.5L1698.15 926.348Z" fill="#C4C4C4"/>
<path opacity="0.5" d="M158.357 206.643L299.643 206.643L370.286 329L299.643 451.357L158.357 451.357L87.7142 329L158.357 206.643Z" fill="#C4C4C4"/>
<path opacity="0.5" d="M707.357 384.643L848.643 384.643L919.286 507L848.643 629.357L707.357 629.357L636.714 507L707.357 384.643Z" fill="#C4C4C4"/>
<path opacity="0.5" d="M420.394 798.106L508.606 798.106L552.712 874.5L508.606 950.894L420.394 950.894L376.288 874.5L420.394 798.106Z" fill="#C4C4C4"/>
<path opacity="0.5" d="M898.394 601.106L986.606 601.106L1030.71 677.5L986.606 753.894L898.394 753.894L854.288 677.5L898.394 601.106Z" fill="#C4C4C4"/>
<path opacity="0.5" d="M38.401 29.099L96.599 29.099L125.698 79.5L96.599 129.901L38.401 129.901L9.30196 79.5L38.401 29.099Z" fill="#C4C4C4"/>
<path opacity="0.5" d="M1022.75 221.245L1237.25 221.245L1344.49 407L1237.25 592.755L1022.75 592.755L915.509 407L1022.75 221.245Z" fill="#C4C4C4"/>
<path opacity="0.5" d="M1604.6 169.905L1770.4 169.905L1853.31 313.5L1770.4 457.095L1604.6 457.095L1521.69 313.5L1604.6 169.905Z" fill="#C4C4C4"/>
<path opacity="0.5" d="M1381.63 774.368L1494.37 774.368L1550.74 872L1494.37 969.632L1381.63 969.632L1325.26 872L1381.63 774.368Z" fill="#C4C4C4"/>
</svg>
