<svg xmlns="http://www.w3.org/2000/svg" width="446.271" height="446.27" viewBox="0 0 446.271 446.27"><path d="M439.124 81.16h-68.5V59.424a7.15 7.15 0 0 0-7.146-7.146h-49a7.15 7.15 0 0 0-7.146 7.146V81.16H138.947V59.424a7.15 7.15 0 0 0-7.146-7.146h-49a7.15 7.15 0 0 0-7.146 7.146V81.16h-68.5A7.15 7.15 0 0 0 0 88.306v45.614a7.15 7.15 0 0 0 7.146 7.146h431.98a7.15 7.15 0 0 0 7.146-7.146V88.306a7.15 7.15 0 0 0-7.147-7.146zM30.346 384.723a9.27 9.27 0 0 0 9.268 9.27h367.04a9.27 9.27 0 0 0 9.269-9.27v-219.32H30.346v219.32zm148.916-94.7l21.716-69.4a2.86 2.86 0 0 1 2.727-2.004h33.864a2.86 2.86 0 0 1 2.31 1.177 2.85 2.85 0 0 1 .406 2.561l-13.22 40.84h37.217a2.86 2.86 0 0 1 2.51 1.49c.5.918.46 2.035-.107 2.914l-49.72 77.15c-.538.835-1.453 1.3-2.402 1.3a2.68 2.68 0 0 1-1.025-.2 2.86 2.86 0 0 1-1.793-3.13l8.028-49.005H182a2.86 2.86 0 0 1-2.302-1.166 2.85 2.85 0 0 1-.426-2.545z"/></svg>