<svg xmlns="http://www.w3.org/2000/svg" viewBox="0 0 474.026 474.026" fill="#010002"><path d="M336.848 56.437a7.08 7.08 0 0 0 7.08-7.064V7.08c0-3.902-3.178-7.08-7.08-7.08-3.894 0-7.064 3.178-7.064 7.08v42.293c0 3.902 3.18 7.064 7.064 7.064zm-38.513 0c3.9 0 7.088-3.162 7.088-7.064V7.08c0-3.902-3.178-7.08-7.088-7.08-3.885 0-7.056 3.178-7.056 7.08v42.293a7.07 7.07 0 0 0 7.056 7.064zm-39.22 0c3.894 0 7.047-3.162 7.047-7.064V7.08c0-3.902-3.162-7.08-7.047-7.08-3.902 0-7.08 3.178-7.08 7.08v42.293c0 3.902 3.17 7.064 7.08 7.064zm-38.522 0a7.07 7.07 0 0 0 7.064-7.064V7.08A7.09 7.09 0 0 0 220.593 0c-3.902 0-7.072 3.178-7.072 7.08v42.293c0 3.902 3.17 7.064 7.072 7.064zm-35.53 0c3.877 0 7.056-3.162 7.056-7.064V7.08c0-3.902-3.178-7.08-7.056-7.08a7.08 7.08 0 0 0-7.08 7.08v42.293c0 3.902 3.162 7.064 7.08 7.064zm-38.52 0c3.894 0 7.056-3.162 7.056-7.064V7.08c0-3.902-3.162-7.08-7.056-7.08a7.08 7.08 0 0 0-7.072 7.08v42.293c0 3.902 3.17 7.064 7.072 7.064zM49.34 129.4H7.064C3.162 129.4 0 132.577 0 136.463s3.162 7.064 7.064 7.064H49.34a7.08 7.08 0 0 0 7.08-7.064 7.08 7.08 0 0 0-7.08-7.064zm0 38.52H7.064c-3.902 0-7.064 3.162-7.064 7.056 0 3.902 3.162 7.064 7.064 7.064H49.34c3.918 0 7.08-3.162 7.08-7.064s-3.162-7.056-7.08-7.056zm0 39.245H7.064c-3.902 0-7.064 3.162-7.064 7.08 0 3.894 3.162 7.056 7.064 7.056H49.34c3.918 0 7.08-3.162 7.08-7.056a7.07 7.07 0 0 0-7.08-7.08zm0 38.497H7.064c-3.902 0-7.064 3.178-7.064 7.064s3.162 7.064 7.064 7.064H49.34a7.08 7.08 0 0 0 7.08-7.064 7.08 7.08 0 0 0-7.08-7.064zm0 35.522H7.064c-3.902 0-7.064 3.178-7.064 7.064 0 3.918 3.162 7.096 7.064 7.096H49.34c3.918 0 7.08-3.178 7.08-7.096 0-3.894-3.162-7.064-7.08-7.064zm0 38.53H7.064A7.06 7.06 0 0 0 0 326.777c0 3.894 3.162 7.072 7.064 7.072H49.34a7.08 7.08 0 0 0 7.08-7.072 7.07 7.07 0 0 0-7.08-7.064zm287.508 97.893a7.08 7.08 0 0 0-7.064 7.064v42.293a7.07 7.07 0 0 0 7.064 7.064c3.902 0 7.08-3.154 7.08-7.064V424.67a7.08 7.08 0 0 0-7.08-7.064zm-38.513 0a7.08 7.08 0 0 0-7.056 7.064v42.293a7.07 7.07 0 0 0 7.056 7.064c3.9 0 7.088-3.154 7.088-7.064V424.67c0-3.894-3.178-7.064-7.088-7.064zm-39.22 0a7.09 7.09 0 0 0-7.08 7.064v42.293a7.08 7.08 0 0 0 7.08 7.064 7.05 7.05 0 0 0 7.047-7.064V424.67c0-3.894-3.162-7.064-7.047-7.064zm-38.522 0c-3.902 0-7.072 3.178-7.072 7.064v42.293a7.06 7.06 0 0 0 7.072 7.064c3.894 0 7.064-3.154 7.064-7.064V424.67a7.08 7.08 0 0 0-7.064-7.064zm-35.53 0a7.08 7.08 0 0 0-7.08 7.064v42.293a7.07 7.07 0 0 0 7.08 7.064 7.07 7.07 0 0 0 7.056-7.064V424.67a7.08 7.08 0 0 0-7.056-7.064zm-38.52 0a7.09 7.09 0 0 0-7.08 7.064v42.293a7.08 7.08 0 0 0 7.08 7.064c3.894 0 7.056-3.154 7.056-7.064V424.67a7.07 7.07 0 0 0-7.056-7.064zm209.953-342.66H126.88c-24.093 0-43.715 19.64-43.715 43.732v229.6c0 24.134 19.622 43.772 43.715 43.772h229.616c24.1 0 43.74-19.64 43.74-43.772v-229.6c0-24.093-19.64-43.732-43.74-43.732zm-207.4 69.776c-7.706 0-13.95-6.243-13.95-13.932a13.96 13.96 0 0 1 13.949-13.949c7.673 0 13.932 6.26 13.932 13.95s-6.258 13.932-13.932 13.932zM315.56 302.78H169.383V155.24H315.56v147.54zm109.085-159.254h42.3a7.09 7.09 0 0 0 7.08-7.064 7.09 7.09 0 0 0-7.08-7.064h-42.3a7.08 7.08 0 0 0-7.064 7.064 7.08 7.08 0 0 0 7.064 7.064zm42.3 24.394h-42.3a7.07 7.07 0 0 0-7.064 7.056c0 3.902 3.178 7.064 7.064 7.064h42.3a7.08 7.08 0 0 0 7.08-7.064c0-3.902-3.17-7.056-7.08-7.056zm0 39.245h-42.3c-3.894 0-7.064 3.162-7.064 7.08 0 3.894 3.178 7.056 7.064 7.056h42.3c3.902 0 7.08-3.162 7.08-7.056 0-3.918-3.17-7.08-7.08-7.08zm0 38.497h-42.3a7.08 7.08 0 0 0-7.064 7.064c0 3.885 3.178 7.064 7.064 7.064h42.3a7.09 7.09 0 0 0 7.08-7.064c0-3.886-3.17-7.064-7.08-7.064zm0 35.522h-42.3a7.08 7.08 0 0 0-7.064 7.064c0 3.918 3.178 7.096 7.064 7.096h42.3c3.902 0 7.08-3.178 7.08-7.096a7.08 7.08 0 0 0-7.08-7.064zm0 38.53h-42.3c-3.894 0-7.064 3.154-7.064 7.064a7.09 7.09 0 0 0 7.064 7.072h42.3a7.09 7.09 0 0 0 7.08-7.072c0-3.9-3.17-7.064-7.08-7.064z"/></svg>