<svg xmlns="http://www.w3.org/2000/svg" viewBox="0 0 26.769 26.769"><path d="M17.6 12.297a2.78 2.78 0 0 1 1.854-.457l7.314-7.316L22.673.428l-7.315 7.316c.074.65-.1 1.314-.476 1.877l2.72 2.676zm-12.758 8.9l-.265-.265-1.387 1.12-2.336 3.68.598.598 3.684-2.336 1.12-1.383L6 22.35l4.652-4.653-1.156-1.14zm6.362-12.9a5.71 5.71 0 0 0-1.457-5.576C8.245 1.235 6.124.744 4.215 1.262l3.233 3.232L6.6 7.66l-3.17.848-3.232-3.23a5.7 5.7 0 0 0 1.473 5.529c1.57 1.572 3.835 2.033 5.815 1.4l13.317 13.317a2.69 2.69 0 0 0 1.905.79 2.7 2.7 0 0 0 1.906-4.6L11.214 8.31zM22.94 25.06c-.566 0-1.025-.46-1.025-1.03S22.375 23 22.94 23a1.03 1.03 0 0 1 1.031 1.029 1.03 1.03 0 0 1-1.031 1.029z"/></svg>